. 
 
http://www.torrenting.com          :     Once & For all ;)


               www . Torrenting . Com 

(((((((((((((= Enjoy No RAR releases =))))))))))))))))))))


...................................NFO:....................................

.[img]http://img192.imageshack.us/img192/2931/postyuiokmnbvgh.png[/img]

[color=blue][size=5]Lady and the Tramp 1955 DVDRip XViD SeT-CM8[/size][/color]

[color=blue][size=4]The romantic tale of a sheltered uptown Cocker Spaniel dog and a streetwise downtown Mutt. [/size][/color]

[url]http://www.imdb.com/title/tt0048280/[/url]

[size=5][color=blue]CM8 Doing It Right The First Time[/color][/size] :D

Source: Own DVD , thanks :lol:

General
Complete name                    : Lady.and.the.Tramp.1955.DVDRip.XViD.SeT-CM8.avi
Format                           : AVI
Format/Info                      : Audio Video Interleave
File size                        : 1.35 GiB
Duration                         : 1h 16mn
Overall bit rate                 : 2 526 Kbps

Video
ID                               : 0
Format                           : MPEG-4 Visual
Format profile                   : Advanced Simple@L5
Format settings, BVOP            : 2
Format settings, QPel            : No
Format settings, GMC             : No warppoints
Format settings, Matrix          : Custom
Codec ID                         : XVID
Codec ID/Hint                    : XviD
Duration                         : 1h 16mn
Bit rate                         : 2 194 Kbps
Width                            : 720 pixels
Height                           : 336 pixels
Display aspect ratio             : 2.2:1
Frame rate                       : 29.970 fps
Color space                      : YUV
Chroma subsampling               : 4:2:0
Bit depth                        : 8 bits
Scan type                        : Progressive
Compression mode                 : Lossy
Bits/(Pixel*Frame)               : 0.303
Stream size                      : 1.17 GiB (87%)
Writing library                  : XviD 63

Audio
ID                               : 1
Format                           : AC-3
Format/Info                      : Audio Coding 3
Mode extension                   : CM (complete main)
Codec ID                         : 2000
Duration                         : 1h 16mn
Bit rate mode                    : Constant
Bit rate                         : 320 Kbps
Channel(s)                       : 2 channels
Channel positions                : Front: L R
Sampling rate                    : 48.0 KHz
Bit depth                        : 16 bits
Compression mode                 : Lossy
Stream size                      : 175 MiB (13%)
Alignment                        : Aligned on interleaves
Interleave, duration             : 33 ms (1.00 video frame)




[img]http://img812.imageshack.us/img812/1782/kjhgftyuio.png[/img]
[img]http://img714.imageshack.us/img714/6475/yhnmjuik.png[/img]
[img]http://img407.imageshack.us/img407/2392/edcvfrtg.png[/img]
[img]http://img546.imageshack.us/img546/2775/zaqwsxcfd.png[/img]
[img]http://img546.imageshack.us/img546/8219/zxcvbnm.png[/img]
[img]http://img4.imageshack.us/img4/5002/asdfghjkv.png[/img]
[img]http://img833.imageshack.us/img833/3320/qwertyuiog.png[/img]



notes:
  Not alot, did a little of this, a little of that and ok, maybe alittle of the other ;)

side note: Sorry about last release, if i'd known about a Bluray Rip release on its way . i wouldnt of release mine. just a little Bad communication .But you must all agree Mr Hives release is perfection like always.
so really its a win win ;)


[size=4][color=blue]LOOKING FOR ANYTHING YOU WANT TO LOOK AND SOUND BETTER

CM8@hushmail.com[/color][/size]


big shout out to my Homies Mr Hive , Sir Unevano, Super TED, Pinny and Mr Simmo.
Greets to SAiNTS,DTRG,SANTi,BDK, THC,SAFC, SiC, AMIABLE and mSD
 all the other Legends out there Past and Present..